<?xml version="1.0" encoding="UTF-8"?>
<svg id="uuid-6b59fbf9-f920-4747-a647-8337337967dd" data-name=" 圖層 1" xmlns="http://www.w3.org/2000/svg" viewBox="0 0 453.5 120.1">
  <defs>
    <style>
      .uuid-6d6dccb4-cfcf-4a73-a82e-eec3e41fd71e {
        fill: #4cac87;
      }
    </style>
  </defs>
  <path class="uuid-6d6dccb4-cfcf-4a73-a82e-eec3e41fd71e" d="M60.59,80.99c11.57,0,20.94-9.38,20.94-20.94V8.26c-6.47-2.62-13.54-4.06-20.94-4.06s-14.48,1.44-20.95,4.06v51.79c0,11.57,9.38,20.94,20.95,20.94M60.59,45.81c7.87,0,14.24,6.38,14.24,14.24s-6.38,14.24-14.24,14.24-14.24-6.38-14.24-14.24,6.38-14.24,14.24-14.24"/>
  <path class="uuid-6d6dccb4-cfcf-4a73-a82e-eec3e41fd71e" d="M92.43,14.15v45.9c0,9.56-4.22,18.01-10.89,23.72-5.6,4.79-12.92,7.66-20.95,7.66s-15.35-2.87-20.95-7.66c-6.68-5.71-10.89-14.16-10.89-23.72V14.15C14.24,24.24,4.74,41.04,4.74,60.05c0,30.85,25.01,55.85,55.85,55.85s55.85-25.01,55.85-55.85c0-19.01-9.5-35.81-24.02-45.9"/>
  <polygon points="194 53.6 173.57 29.27 173.57 53.6 170.95 53.6 170.95 26.54 174.28 26.54 194.67 50.83 194.67 26.54 197.29 26.54 197.29 53.6 194 53.6"/>
  <path d="M287.52,26.54c6.53,0,13.04,3.78,13.04,13.82,0,6.76-4.33,13.24-12.21,13.24h-15.52v-27.06h14.69ZM288.51,51.32c3.67,0,9.36-2.63,9.36-11.09s-5.51-11.4-9.99-11.4h-12.44v22.5h13.07Z"/>
  <path d="M164.78,80.03c0,9.41-7.28,14.39-14.93,14.39-8.16,0-14.89-5.53-14.89-14.39s7.32-14.39,14.89-14.39,14.93,5.37,14.93,14.39M162.09,80.27c0-6.14-4.32-12.35-12.24-12.35s-12.2,6.03-12.2,12.44,4.49,11.78,12.2,11.78,12.24-5.89,12.24-11.86"/>
  <path d="M292.82,80.03c0,9.41-7.28,14.39-14.93,14.39-8.16,0-14.89-5.53-14.89-14.39s7.32-14.39,14.89-14.39,14.93,5.37,14.93,14.39M290.14,80.27c0-6.14-4.32-12.35-12.24-12.35s-12.2,6.03-12.2,12.44,4.49,11.78,12.2,11.78,12.24-5.89,12.24-11.86"/>
  <path d="M194.39,93.56l-7.66-11.14h-13.07v11.14h-2.61v-27.06h18.57c4.32,0,7.56,2.75,7.56,8.14,0,6.36-4.72,7.71-7.27,7.96l7.5,10.97h-3.03ZM189.46,80.14c4.79,0,5.11-4.54,5.11-5.69,0-3.52-2.13-5.67-5.9-5.67h-15.01v11.35h15.8Z"/>
  <polygon points="254.12 93.56 254.12 80.42 233.21 80.42 233.21 93.56 230.6 93.56 230.6 66.5 233.21 66.5 233.21 78.14 254.12 78.14 254.12 66.5 256.73 66.5 256.73 93.56 254.12 93.56"/>
  <path d="M317.67,66.5c4.56,0,7.57,3.07,7.57,7.95s-3.22,7.97-8.13,7.97h-15.41v11.14h-2.61v-27.06h18.57ZM317.51,80.14c1.55,0,5.12-.46,5.12-5.58,0-3.52-2.14-5.77-5.91-5.77h-15.01v11.35h15.8Z"/>
  <rect x="205.65" y="26.54" width="2.61" height="27.06"/>
  <rect x="394.82" y="66.5" width="2.61" height="27.06"/>
  <polygon points="227.2 28.82 227.2 53.6 224.59 53.6 224.59 28.82 212.97 28.82 212.97 26.54 238.82 26.54 238.82 28.82 227.2 28.82"/>
  <polygon points="214.27 68.78 214.27 93.56 211.66 93.56 211.66 68.78 200.03 68.78 200.03 66.5 225.89 66.5 225.89 68.78 214.27 68.78"/>
  <polygon points="243.53 53.6 243.53 26.54 266.65 26.54 266.65 28.82 246.14 28.82 246.14 38.14 260.4 38.14 260.4 40.42 246.14 40.42 246.14 51.32 267.61 51.32 267.61 53.6 243.53 53.6"/>
  <path d="M375.51,66.5c6.53,0,13.04,3.78,13.04,13.82,0,6.76-4.33,13.24-12.21,13.24h-15.52v-27.06h14.69ZM376.5,91.28c3.67,0,9.36-2.63,9.36-11.09s-5.51-11.4-9.99-11.4h-12.44v22.49h13.07Z"/>
  <polygon points="331.51 93.56 331.51 66.5 354.64 66.5 354.64 68.78 334.13 68.78 334.13 78.1 348.38 78.1 348.38 80.38 334.13 80.38 334.13 91.28 355.59 91.28 355.59 93.56 331.51 93.56"/>
  <path d="M163.11,45.03c0,4.95-4.23,9.43-13.19,9.43-8.49,0-13.31-4.2-13.31-9.43v-18.49h2.61v17.59c0,5.07,3.56,8.05,10.69,8.05s10.57-2.98,10.57-8.05v-17.59h2.61v18.49Z"/>
  <path d="M418.66,92.14c-7.4,0-12.14-5.36-12.27-12.11,0-5.69,4.04-12.11,12.27-12.11,4.64,0,8.21,1.94,10.67,5.01l2.34-1.01c-1.43-2.03-5.16-6.28-13.01-6.28-8.36,0-14.96,5.82-14.96,14.37,0,9.26,7.37,14.41,14.96,14.41,8.3,0,12.06-4.89,12.66-5.92l-1.99-1.37c-1.54,1.91-4.8,5.01-10.67,5.01"/>
  <path d="M437.37,88.01c0-3.12,2.56-5.68,5.71-5.68s5.68,2.56,5.68,5.68-2.55,5.71-5.68,5.71-5.71-2.56-5.71-5.71M447.85,88.01c0-2.77-2-4.77-4.77-4.77s-4.8,2-4.8,4.77,2.02,4.8,4.8,4.8,4.77-2,4.77-4.8M441.78,91.24h-.83v-6.52h2.8c1.7,0,2.27.64,2.27,1.8,0,1.26-.88,1.73-2.02,1.82l1.94,2.89h-.94l-1.83-2.89h-1.39v2.89ZM442.93,87.59c.91,0,2.18.15,2.18-1.08,0-.91-.76-1.03-1.55-1.03h-1.79v2.11h1.15Z"/>
</svg>